<?xml version="1.0" ?><svg width="56px" height="56px" viewBox="0 -7.5 56 56" version="1.1" xmlns="http://www.w3.org/2000/svg" xmlns:xlink="http://www.w3.org/1999/xlink"><title/><desc/><g fill="none" fill-rule="evenodd" id="Page-1" stroke="none" stroke-width="1"><g fill="#000000" fill-rule="nonzero" id="002---Laptop"><path d="M53,1 C53,0.44771525 52.5522847,0 52,0 L4,0 C3.44771525,0 3,0.44771525 3,1 L3,33 L53,33 L53,1 Z M7,29 C7,29.5522847 6.55228475,30 6,30 C5.44771525,30 5,29.5522847 5,29 L5,11 C5,10.4477153 5.44771525,10 6,10 C6.55228475,10 7,10.4477153 7,11 L7,29 Z M7,6 C7,6.55228475 6.55228475,7 6,7 C5.44771525,7 5,6.55228475 5,6 L5,4 C5,3.44771525 5.44771525,3 6,3 C6.55228475,3 7,3.44771525 7,4 L7,6 Z" id="Shape"/><path d="M0,38 C0.00494220167,39.6548028 1.3451972,40.9950578 3,41 L53,41 C54.6548028,40.9950578 55.9950578,39.6548028 56,38 L56,35 L0,35 L0,38 Z M9,37 L22,37 C22.5522847,37 23,37.4477153 23,38 C23,38.5522847 22.5522847,39 22,39 L9,39 C8.44771525,39 8,38.5522847 8,38 C8,37.4477153 8.44771525,37 9,37 Z M3,37 L5,37 C5.55228475,37 6,37.4477153 6,38 C6,38.5522847 5.55228475,39 5,39 L3,39 C2.44771525,39 2,38.5522847 2,38 C2,37.4477153 2.44771525,37 3,37 Z" id="Shape"/></g></g></svg>